<svg data-v-fde0c5aa="" xmlns="http://www.w3.org/2000/svg" viewBox="0 0 300 300" class="iconLeftSlogan"><!----><defs data-v-fde0c5aa=""><linearGradient data-v-fde0c5aa="" gradientTransform="rotate(25)" id="6f722514-0e8c-4f3a-ae0e-983e529bd0b1" x1="0%" y1="0%" x2="100%" y2="0%"><stop data-v-fde0c5aa="" offset="0%" stop-color="#006678" stop-opacity="1"></stop><stop data-v-fde0c5aa="" offset="100%" stop-color="#4FA8FF" stop-opacity="1"></stop></linearGradient></defs><rect data-v-fde0c5aa="" fill="url(#6f722514-0e8c-4f3a-ae0e-983e529bd0b1)" x="0" y="0" width="300px" height="300px" class="logo-background-square"></rect><defs data-v-fde0c5aa=""><!----></defs><g data-v-fde0c5aa="" id="2be0aad1-2a47-4fec-84a3-a35e3b70f6b4" fill="#ffffff" transform="matrix(0.6894704086254823,0,0,0.6894704086254823,85.83288343709634,135.56670516486759)"><path d="M2.04 2.92L-0.15 2.92L-0.15 10.50L2.04 10.50L2.04 2.92ZM2.16 0.60L2.16 0.60L2.16 0.60Q2.16-0.41 0.95-0.41L0.95-0.41L0.95-0.41Q-0.26-0.41-0.26 0.60L-0.26 0.60L-0.26 0.60Q-0.26 1.60 0.95 1.60L0.95 1.60L0.95 1.60Q2.16 1.60 2.16 0.60ZM3.21 2.92L3.21 10.50L5.40 10.50L5.40 5.10L5.40 5.10Q5.40 4.23 6.56 4.23L6.56 4.23L6.56 4.23Q7.73 4.23 7.73 5.10L7.73 5.10L7.73 10.50L9.92 10.50L9.92 4.67L9.92 4.67Q9.92 2.77 7.66 2.77L7.66 2.77L7.66 2.77Q5.40 2.77 5.40 3.94L5.40 3.94L5.40 2.92L3.21 2.92ZM11.90 10.50L14.09 10.50L14.09 4.38L14.96 4.38L14.96 2.92L14.09 2.92L14.09 1.90L14.09 1.90Q14.09 1.17 14.96 1.17L14.96 1.17L14.96-0.29L13.59-0.29L13.59-0.29Q11.90-0.29 11.90 1.46L11.90 1.46L11.90 2.92L11.23 2.92L11.23 4.38L11.90 4.38L11.90 10.50ZM18.17 2.92L15.98 2.92L15.98 10.50L18.17 10.50L18.17 2.92ZM18.29 0.60L18.29 0.60L18.29 0.60Q18.29-0.41 17.08-0.41L17.08-0.41L17.08-0.41Q15.87-0.41 15.87 0.60L15.87 0.60L15.87 0.60Q15.87 1.60 17.08 1.60L17.08 1.60L17.08 1.60Q18.29 1.60 18.29 0.60ZM19.34 2.92L19.34 10.50L21.53 10.50L21.53 5.10L21.53 5.10Q21.53 4.23 22.69 4.23L22.69 4.23L22.69 4.23Q23.86 4.23 23.86 5.10L23.86 5.10L23.86 10.50L26.05 10.50L26.05 4.67L26.05 4.67Q26.05 2.77 23.79 2.77L23.79 2.77L23.79 2.77Q21.53 2.77 21.53 3.94L21.53 3.94L21.53 2.92L19.34 2.92ZM29.40 2.92L27.21 2.92L27.21 10.50L29.40 10.50L29.40 2.92ZM29.52 0.60L29.52 0.60L29.52 0.60Q29.52-0.41 28.31-0.41L28.31-0.41L28.31-0.41Q27.10-0.41 27.10 0.60L27.10 0.60L27.10 0.60Q27.10 1.60 28.31 1.60L28.31 1.60L28.31 1.60Q29.52 1.60 29.52 0.60ZM31.38 0.58L33.57 0.58L33.57 2.92L34.45 2.92L34.45 4.38L33.57 4.38L33.57 8.17L33.57 8.17Q33.57 9.04 34.45 9.04L34.45 9.04L34.45 10.50L33.43 10.50L33.43 10.50Q31.38 10.50 31.38 8.75L31.38 8.75L31.38 4.38L30.57 4.38L30.57 2.92L31.38 2.92L31.38 0.58ZM35.61 4.67L35.61 4.67L35.61 8.75L35.61 8.75Q35.61 10.65 38.97 10.65L38.97 10.65L38.97 10.65Q42.32 10.65 42.32 8.75L42.32 8.75L42.32 8.17L40.13 8.17L40.13 8.46L40.13 8.46Q40.13 9.19 38.97 9.19L38.97 9.19L38.97 9.19Q37.80 9.19 37.80 8.46L37.80 8.46L37.80 7.44L42.32 7.44L42.32 4.67L42.32 4.67Q42.32 2.77 38.97 2.77L38.97 2.77L38.97 2.77Q35.61 2.77 35.61 4.67ZM40.13 5.98L37.80 5.98L37.80 4.96L37.80 4.96Q37.80 4.23 38.97 4.23L38.97 4.23L38.97 4.23Q40.13 4.23 40.13 4.96L40.13 4.96L40.13 5.98ZM51.51 10.50L53.70 10.50L53.70-0.29L51.51-0.29L51.51 3.94L51.51 3.94Q51.51 2.77 49.25 2.77L49.25 2.77L49.25 2.77Q46.99 2.77 46.99 4.67L46.99 4.67L46.99 8.75L46.99 8.75Q46.99 10.65 49.25 10.65L49.25 10.65L49.25 10.65Q51.51 10.65 51.51 9.48L51.51 9.48L51.51 10.50ZM51.51 4.96L51.51 4.96L51.51 8.46L51.51 8.46Q51.51 9.19 50.34 9.19L50.34 9.19L50.34 9.19Q49.18 9.19 49.18 8.46L49.18 8.46L49.18 4.96L49.18 4.96Q49.18 4.23 50.34 4.23L50.34 4.23L50.34 4.23Q51.51 4.23 51.51 4.96ZM57.05 2.92L54.86 2.92L54.86 10.50L57.05 10.50L57.05 2.92ZM57.17 0.60L57.17 0.60L57.17 0.60Q57.17-0.41 55.96-0.41L55.96-0.41L55.96-0.41Q54.75-0.41 54.75 0.60L54.75 0.60L54.75 0.60Q54.75 1.60 55.96 1.60L55.96 1.60L55.96 1.60Q57.17 1.60 57.17 0.60ZM62.74 2.92L64.93 2.92L64.93 11.67L64.93 11.67Q64.93 13.27 61.57 13.27L61.57 13.27L61.57 13.27Q58.22 13.27 58.22 11.67L58.22 11.67L58.22 11.23L60.40 11.23L60.40 11.38L60.40 11.38Q60.40 11.81 61.57 11.81L61.57 11.81L61.57 11.81Q62.74 11.81 62.74 11.38L62.74 11.38L62.74 9.48L62.74 9.48Q62.74 10.65 60.48 10.65L60.48 10.65L60.48 10.65Q58.22 10.65 58.22 8.75L58.22 8.75L58.22 4.67L58.22 4.67Q58.22 2.77 60.48 2.77L60.48 2.77L60.48 2.77Q62.74 2.77 62.74 3.94L62.74 3.94L62.74 2.92ZM62.74 8.46L62.74 8.46L62.74 4.96L62.74 4.96Q62.74 4.23 61.57 4.23L61.57 4.23L61.57 4.23Q60.40 4.23 60.40 4.96L60.40 4.96L60.40 8.46L60.40 8.46Q60.40 9.19 61.57 9.19L61.57 9.19L61.57 9.19Q62.74 9.19 62.74 8.46ZM68.28 2.92L66.09 2.92L66.09 10.50L68.28 10.50L68.28 2.92ZM68.40 0.60L68.40 0.60L68.40 0.60Q68.40-0.41 67.19-0.41L67.19-0.41L67.19-0.41Q65.98-0.41 65.98 0.60L65.98 0.60L65.98 0.60Q65.98 1.60 67.19 1.60L67.19 1.60L67.19 1.60Q68.40 1.60 68.40 0.60ZM70.26 0.58L72.45 0.58L72.45 2.92L73.33 2.92L73.33 4.38L72.45 4.38L72.45 8.17L72.45 8.17Q72.45 9.04 73.33 9.04L73.33 9.04L73.33 10.50L72.30 10.50L72.30 10.50Q70.26 10.50 70.26 8.75L70.26 8.75L70.26 4.38L69.45 4.38L69.45 2.92L70.26 2.92L70.26 0.58ZM78.43 9.71L78.43 9.71Q78.43 10.65 77.20 10.65L77.20 10.65L77.20 10.65Q74.49 10.65 74.49 8.75L74.49 8.75L74.49 7.76L74.49 7.76Q74.49 5.80 77.55 5.80L77.55 5.80L77.55 5.80Q78.43 5.80 78.43 5.25L78.43 5.25L78.43 4.96L78.43 4.96Q78.43 4.23 77.55 4.23L77.55 4.23L77.55 4.23Q76.88 4.23 76.88 4.96L76.88 4.96L76.88 5.25L74.70 5.25L74.70 4.67L74.70 4.67Q74.70 2.77 77.55 2.77L77.55 2.77L77.55 2.77Q80.62 2.77 80.62 4.67L80.62 4.67L80.62 9.48L80.62 9.48Q80.62 10.50 81.20 10.50L81.20 10.50L79.01 10.50L79.01 10.50Q78.43 10.50 78.43 9.71L78.43 9.71ZM78.43 6.82L78.43 6.82Q78.43 7.26 77.55 7.26L77.55 7.26L77.55 7.26Q76.68 7.26 76.68 8.05L76.68 8.05L76.68 8.46L76.68 8.46Q76.68 9.19 77.55 9.19L77.55 9.19L77.55 9.19Q78.43 9.19 78.43 8.10L78.43 8.10L78.43 6.82ZM81.93 10.50L84.12 10.50L84.12-0.29L81.93-0.29L81.93 10.50ZM93.16 10.50L95.35 10.50L95.35-0.29L93.16-0.29L93.16 3.94L93.16 3.94Q93.16 2.77 90.90 2.77L90.90 2.77L90.90 2.77Q88.64 2.77 88.64 4.67L88.64 4.67L88.64 8.75L88.64 8.75Q88.64 10.65 90.90 10.65L90.90 10.65L90.90 10.65Q93.16 10.65 93.16 9.48L93.16 9.48L93.16 10.50ZM93.16 4.96L93.16 4.96L93.16 8.46L93.16 8.46Q93.16 9.19 91.99 9.19L91.99 9.19L91.99 9.19Q90.83 9.19 90.83 8.46L90.83 8.46L90.83 4.96L90.83 4.96Q90.83 4.23 91.99 4.23L91.99 4.23L91.99 4.23Q93.16 4.23 93.16 4.96ZM96.51 4.67L96.51 4.67L96.51 8.75L96.51 8.75Q96.51 10.65 99.87 10.65L99.87 10.65L99.87 10.65Q103.22 10.65 103.22 8.75L103.22 8.75L103.22 8.17L101.03 8.17L101.03 8.46L101.03 8.46Q101.03 9.19 99.87 9.19L99.87 9.19L99.87 9.19Q98.70 9.19 98.70 8.46L98.70 8.46L98.70 7.44L103.22 7.44L103.22 4.67L103.22 4.67Q103.22 2.77 99.87 2.77L99.87 2.77L99.87 2.77Q96.51 2.77 96.51 4.67ZM101.03 5.98L98.70 5.98L98.70 4.96L98.70 4.96Q98.70 4.23 99.87 4.23L99.87 4.23L99.87 4.23Q101.03 4.23 101.03 4.96L101.03 4.96L101.03 5.98ZM106.72 5.10L106.72 5.10L106.72 4.96L106.72 4.96Q106.72 4.23 107.74 4.23L107.74 4.23L107.74 4.23Q108.76 4.23 108.76 4.96L108.76 4.96L108.76 5.54L110.95 5.54L110.95 4.67L110.95 4.67Q110.95 2.77 107.74 2.77L107.74 2.77L107.74 2.77Q104.53 2.77 104.53 4.67L104.53 4.67L104.53 5.40L104.53 5.40Q104.53 7.17 107.74 7.50L107.74 7.50L107.74 7.50Q108.91 7.66 108.91 8.31L108.91 8.31L108.91 8.46L108.91 8.46Q108.91 9.19 107.74 9.19L107.74 9.19L107.74 9.19Q106.58 9.19 106.58 8.46L106.58 8.46L106.58 7.88L104.39 7.88L104.39 8.75L104.39 8.75Q104.39 10.65 107.74 10.65L107.74 10.65L107.74 10.65Q111.10 10.65 111.10 8.75L111.10 8.75L111.10 7.73L111.10 7.73Q111.10 6.11 107.74 5.83L107.74 5.83L107.74 5.83Q106.72 5.68 106.72 5.10ZM114.45 2.92L112.26 2.92L112.26 10.50L114.45 10.50L114.45 2.92ZM114.57 0.60L114.57 0.60L114.57 0.60Q114.57-0.41 113.36-0.41L113.36-0.41L113.36-0.41Q112.15-0.41 112.15 0.60L112.15 0.60L112.15 0.60Q112.15 1.60 113.36 1.60L113.36 1.60L113.36 1.60Q114.57 1.60 114.57 0.60ZM120.14 2.92L122.33 2.92L122.33 11.67L122.33 11.67Q122.33 13.27 118.97 13.27L118.97 13.27L118.97 13.27Q115.62 13.27 115.62 11.67L115.62 11.67L115.62 11.23L117.80 11.23L117.80 11.38L117.80 11.38Q117.80 11.81 118.97 11.81L118.97 11.81L118.97 11.81Q120.14 11.81 120.14 11.38L120.14 11.38L120.14 9.48L120.14 9.48Q120.14 10.65 117.88 10.65L117.88 10.65L117.88 10.65Q115.62 10.65 115.62 8.75L115.62 8.75L115.62 4.67L115.62 4.67Q115.62 2.77 117.88 2.77L117.88 2.77L117.88 2.77Q120.14 2.77 120.14 3.94L120.14 3.94L120.14 2.92ZM120.14 8.46L120.14 8.46L120.14 4.96L120.14 4.96Q120.14 4.23 118.97 4.23L118.97 4.23L118.97 4.23Q117.80 4.23 117.80 4.96L117.80 4.96L117.80 8.46L117.80 8.46Q117.80 9.19 118.97 9.19L118.97 9.19L118.97 9.19Q120.14 9.19 120.14 8.46ZM123.49 2.92L123.49 10.50L125.68 10.50L125.68 5.10L125.68 5.10Q125.68 4.23 126.85 4.23L126.85 4.23L126.85 4.23Q128.01 4.23 128.01 5.10L128.01 5.10L128.01 10.50L130.20 10.50L130.20 4.67L130.20 4.67Q130.20 2.77 127.94 2.77L127.94 2.77L127.94 2.77Q125.68 2.77 125.68 3.94L125.68 3.94L125.68 2.92L123.49 2.92ZM138.80 9.71L138.80 9.71Q138.80 10.65 137.58 10.65L137.58 10.65L137.58 10.65Q134.87 10.65 134.87 8.75L134.87 8.75L134.87 7.76L134.87 7.76Q134.87 5.80 137.93 5.80L137.93 5.80L137.93 5.80Q138.80 5.80 138.80 5.25L138.80 5.25L138.80 4.96L138.80 4.96Q138.80 4.23 137.93 4.23L137.93 4.23L137.93 4.23Q137.26 4.23 137.26 4.96L137.26 4.96L137.26 5.25L135.07 5.25L135.07 4.67L135.07 4.67Q135.07 2.77 137.93 2.77L137.93 2.77L137.93 2.77Q140.99 2.77 140.99 4.67L140.99 4.67L140.99 9.48L140.99 9.48Q140.99 10.50 141.58 10.50L141.58 10.50L139.39 10.50L139.39 10.50Q138.80 10.50 138.80 9.71L138.80 9.71ZM138.80 6.82L138.80 6.82Q138.80 7.26 137.93 7.26L137.93 7.26L137.93 7.26Q137.05 7.26 137.05 8.05L137.05 8.05L137.05 8.46L137.05 8.46Q137.05 9.19 137.93 9.19L137.93 9.19L137.93 9.19Q138.80 9.19 138.80 8.10L138.80 8.10L138.80 6.82ZM142.16 2.92L142.16 10.50L144.35 10.50L144.35 5.10L144.35 5.10Q144.35 4.23 145.51 4.23L145.51 4.23L145.51 4.23Q146.68 4.23 146.68 5.10L146.68 5.10L146.68 10.50L148.87 10.50L148.87 4.67L148.87 4.67Q148.87 2.77 146.61 2.77L146.61 2.77L146.61 2.77Q144.35 2.77 144.35 3.94L144.35 3.94L144.35 2.92L142.16 2.92ZM154.55 10.50L156.74 10.50L156.74-0.29L154.55-0.29L154.55 3.94L154.55 3.94Q154.55 2.77 152.29 2.77L152.29 2.77L152.29 2.77Q150.03 2.77 150.03 4.67L150.03 4.67L150.03 8.75L150.03 8.75Q150.03 10.65 152.29 10.65L152.29 10.65L152.29 10.65Q154.55 10.65 154.55 9.48L154.55 9.48L154.55 10.50ZM154.55 4.96L154.55 4.96L154.55 8.46L154.55 8.46Q154.55 9.19 153.39 9.19L153.39 9.19L153.39 9.19Q152.22 9.19 152.22 8.46L152.22 8.46L152.22 4.96L152.22 4.96Q152.22 4.23 153.39 4.23L153.39 4.23L153.39 4.23Q154.55 4.23 154.55 4.96ZM163.60 2.92L161.41 2.92L161.41 13.27L163.60 13.27L163.60 9.48L163.60 9.48Q163.60 10.65 165.86 10.65L165.86 10.65L165.86 10.65Q168.12 10.65 168.12 8.75L168.12 8.75L168.12 4.67L168.12 4.67Q168.12 2.77 165.86 2.77L165.86 2.77L165.86 2.77Q163.60 2.77 163.60 3.94L163.60 3.94L163.60 2.92ZM163.60 8.31L163.60 8.31L163.60 5.10L163.60 5.10Q163.60 4.23 164.76 4.23L164.76 4.23L164.76 4.23Q165.93 4.23 165.93 5.10L165.93 5.10L165.93 8.31L165.93 8.31Q165.93 9.19 164.76 9.19L164.76 9.19L164.76 9.19Q163.60 9.19 163.60 8.31ZM169.28 2.92L169.28 10.50L171.47 10.50L171.47 4.96L171.47 4.96Q171.47 4.23 172.24 4.23L172.24 4.23L172.24 4.23Q173.02 4.23 173.02 4.96L173.02 4.96L173.02 5.54L175.20 5.54L175.20 4.67L175.20 4.67Q175.20 2.77 173.34 2.77L173.34 2.77L173.34 2.77Q171.47 2.77 171.47 3.94L171.47 3.94L171.47 2.92L169.28 2.92ZM178.41 2.92L176.23 2.92L176.23 10.50L178.41 10.50L178.41 2.92ZM178.53 0.60L178.53 0.60L178.53 0.60Q178.53-0.41 177.32-0.41L177.32-0.41L177.32-0.41Q176.11-0.41 176.11 0.60L176.11 0.60L176.11 0.60Q176.11 1.60 177.32 1.60L177.32 1.60L177.32 1.60Q178.53 1.60 178.53 0.60ZM179.58 2.92L179.58 10.50L181.77 10.50L181.77 5.10L181.77 5.10Q181.77 4.23 182.93 4.23L182.93 4.23L182.93 4.23Q184.10 4.23 184.10 5.10L184.10 5.10L184.10 10.50L186.29 10.50L186.29 4.67L186.29 4.67Q186.29 2.77 184.03 2.77L184.03 2.77L184.03 2.77Q181.77 2.77 181.77 3.94L181.77 3.94L181.77 2.92L179.58 2.92ZM188.27 0.58L190.46 0.58L190.46 2.92L191.33 2.92L191.33 4.38L190.46 4.38L190.46 8.17L190.46 8.17Q190.46 9.04 191.33 9.04L191.33 9.04L191.33 10.50L190.31 10.50L190.31 10.50Q188.27 10.50 188.27 8.75L188.27 8.75L188.27 4.38L187.45 4.38L187.45 2.92L188.27 2.92L188.27 0.58ZM198.33 5.10L198.33 5.10L198.33 4.96L198.33 4.96Q198.33 4.23 199.35 4.23L199.35 4.23L199.35 4.23Q200.38 4.23 200.38 4.96L200.38 4.96L200.38 5.54L202.56 5.54L202.56 4.67L202.56 4.67Q202.56 2.77 199.35 2.77L199.35 2.77L199.35 2.77Q196.15 2.77 196.15 4.67L196.15 4.67L196.15 5.40L196.15 5.40Q196.15 7.17 199.35 7.50L199.35 7.50L199.35 7.50Q200.52 7.66 200.52 8.31L200.52 8.31L200.52 8.46L200.52 8.46Q200.52 9.19 199.35 9.19L199.35 9.19L199.35 9.19Q198.19 9.19 198.19 8.46L198.19 8.46L198.19 7.88L196 7.88L196 8.75L196 8.75Q196 10.65 199.35 10.65L199.35 10.65L199.35 10.65Q202.71 10.65 202.71 8.75L202.71 8.75L202.71 7.73L202.71 7.73Q202.71 6.11 199.35 5.83L199.35 5.83L199.35 5.83Q198.33 5.68 198.33 5.10ZM203.88 4.67L203.88 4.67L203.88 8.75L203.88 8.75Q203.88 10.65 207.23 10.65L207.23 10.65L207.23 10.65Q210.58 10.65 210.58 8.75L210.58 8.75L210.58 8.17L208.40 8.17L208.40 8.46L208.40 8.46Q208.40 9.19 207.23 9.19L207.23 9.19L207.23 9.19Q206.06 9.19 206.06 8.46L206.06 8.46L206.06 7.44L210.58 7.44L210.58 4.67L210.58 4.67Q210.58 2.77 207.23 2.77L207.23 2.77L207.23 2.77Q203.88 2.77 203.88 4.67ZM208.40 5.98L206.06 5.98L206.06 4.96L206.06 4.96Q206.06 4.23 207.23 4.23L207.23 4.23L207.23 4.23Q208.40 4.23 208.40 4.96L208.40 4.96L208.40 5.98ZM211.75 2.92L211.75 10.50L213.94 10.50L213.94 4.96L213.94 4.96Q213.94 4.23 214.71 4.23L214.71 4.23L214.71 4.23Q215.48 4.23 215.48 4.96L215.48 4.96L215.48 5.54L217.67 5.54L217.67 4.67L217.67 4.67Q217.67 2.77 215.80 2.77L215.80 2.77L215.80 2.77Q213.94 2.77 213.94 3.94L213.94 3.94L213.94 2.92L211.75 2.92ZM223.56 10.50L226.19 2.92L224.35 2.92L222.78 8.31L221.20 2.92L218.78 2.92L221.64 10.50L223.56 10.50ZM228.99 2.92L226.80 2.92L226.80 10.50L228.99 10.50L228.99 2.92ZM229.10 0.60L229.10 0.60L229.10 0.60Q229.10-0.41 227.89-0.41L227.89-0.41L227.89-0.41Q226.68-0.41 226.68 0.60L226.68 0.60L226.68 0.60Q226.68 1.60 227.89 1.60L227.89 1.60L227.89 1.60Q229.10 1.60 229.10 0.60ZM236.86 8.75L236.86 7.58L234.53 7.58L234.53 8.46L234.53 8.46Q234.53 9.19 233.51 9.19L233.51 9.19L233.51 9.19Q232.34 9.19 232.34 8.46L232.34 8.46L232.34 4.96L232.34 4.96Q232.34 4.23 233.51 4.23L233.51 4.23L233.51 4.23Q234.53 4.23 234.53 4.96L234.53 4.96L234.53 5.83L236.86 5.83L236.86 4.67L236.86 4.67Q236.86 2.77 233.51 2.77L233.51 2.77L233.51 2.77Q230.15 2.77 230.15 4.67L230.15 4.67L230.15 8.75L230.15 8.75Q230.15 10.65 233.51 10.65L233.51 10.65L233.51 10.65Q236.86 10.65 236.86 8.75L236.86 8.75ZM238.03 4.67L238.03 4.67L238.03 8.75L238.03 8.75Q238.03 10.65 241.38 10.65L241.38 10.65L241.38 10.65Q244.74 10.65 244.74 8.75L244.74 8.75L244.74 8.17L242.55 8.17L242.55 8.46L242.55 8.46Q242.55 9.19 241.38 9.19L241.38 9.19L241.38 9.19Q240.22 9.19 240.22 8.46L240.22 8.46L240.22 7.44L244.74 7.44L244.74 4.67L244.74 4.67Q244.74 2.77 241.38 2.77L241.38 2.77L241.38 2.77Q238.03 2.77 238.03 4.67ZM242.55 5.98L240.22 5.98L240.22 4.96L240.22 4.96Q240.22 4.23 241.38 4.23L241.38 4.23L241.38 4.23Q242.55 4.23 242.55 4.96L242.55 4.96L242.55 5.98ZM248.24 5.10L248.24 5.10L248.24 4.96L248.24 4.96Q248.24 4.23 249.26 4.23L249.26 4.23L249.26 4.23Q250.28 4.23 250.28 4.96L250.28 4.96L250.28 5.54L252.47 5.54L252.47 4.67L252.47 4.67Q252.47 2.77 249.26 2.77L249.26 2.77L249.26 2.77Q246.05 2.77 246.05 4.67L246.05 4.67L246.05 5.40L246.05 5.40Q246.05 7.17 249.26 7.50L249.26 7.50L249.26 7.50Q250.42 7.66 250.42 8.31L250.42 8.31L250.42 8.46L250.42 8.46Q250.42 9.19 249.26 9.19L249.26 9.19L249.26 9.19Q248.09 9.19 248.09 8.46L248.09 8.46L248.09 7.88L245.90 7.88L245.90 8.75L245.90 8.75Q245.90 10.65 249.26 10.65L249.26 10.65L249.26 10.65Q252.61 10.65 252.61 8.75L252.61 8.75L252.61 7.73L252.61 7.73Q252.61 6.11 249.26 5.83L249.26 5.83L249.26 5.83Q248.24 5.68 248.24 5.10Z"></path></g><defs data-v-fde0c5aa=""><!----></defs><g data-v-fde0c5aa="" id="3248642f-6998-4be6-b1a7-1b87fa45f03c" stroke="none" fill="#ffffff" transform="matrix(0.4232955757174403,0,0,0.4232955757174403,39.3790028816919,132.10327268479438)"><path d="M18.69 17.75c9.6-1.3 16.8 6.3 21.9 13.4 3.8-4.9 7.2-10.8 13.7-12.5 10.5-4 20.802 4.886 23.8 15.7 2.002 12.7-1.6 27.7-14.2 31.9-10.6 3.2-18.5-5.1-24.2-12.6-4.9 5.7-8.972 12.558-18.6 12.7-9.97-.399-17.7-7.1-19-16-2.515-13.257 2.5-29.8 16.6-32.6m23.5 16.5c3.9 8.6 6.9 20.9 17.9 22.2 8 1.4 13.502-6.086 13.9-14.1.73-7.957-5.3-14.1-12.4-14.6-7.1-1.2-13.8 2.7-19.4 6.5m-27.7-5.4c-8.9 2.1-10.5 14.6-6.5 21.6 6.892 13.885 27.061 7.178 28.9-2.9-3.1-9.5-10.3-22.6-22.4-18.7z"></path></g><defs data-v-fde0c5aa=""><!----></defs><g data-v-fde0c5aa="" id="21af320e-a332-4e3b-ae0d-202908156830" fill="#ffffff" transform="matrix(0.45006550845419346,0,0,0.45006550845419346,85.50059886294503,153.01022944033036)"><path d="M9.02 3.92L8.30 3.92L6.94 3.92L6.94 4.19C6.94 4.34 7.04 4.42 7.22 4.44L7.39 4.44C7.49 4.44 7.63 4.45 7.80 4.45C7.97 4.45 8.13 4.47 8.30 4.47L8.30 10.04C8.30 10.50 8.23 10.92 8.09 11.33C7.95 11.73 7.76 12.08 7.49 12.38C7.22 12.67 6.92 12.89 6.54 13.06C6.16 13.23 5.74 13.31 5.26 13.31C4.79 13.31 4.35 13.23 3.98 13.06C3.60 12.89 3.28 12.66 3.02 12.36C2.76 12.07 2.58 11.72 2.44 11.33C2.30 10.93 2.23 10.50 2.23 10.04L2.23 4.47C2.39 4.47 2.56 4.45 2.73 4.45C2.90 4.45 3.04 4.44 3.14 4.44L3.30 4.44C3.49 4.42 3.58 4.34 3.58 4.19L3.58 3.92L2.23 3.92L1.51 3.92L0.34 3.92L0.34 4.19C0.34 4.34 0.42 4.42 0.60 4.44L0.74 4.44C0.81 4.44 0.91 4.45 1.05 4.45C1.19 4.45 1.34 4.47 1.51 4.47L1.51 10.04C1.51 10.58 1.60 11.09 1.76 11.56C1.93 12.04 2.18 12.46 2.51 12.81C2.83 13.16 3.23 13.44 3.70 13.64C4.16 13.83 4.69 13.93 5.26 13.93C5.84 13.93 6.36 13.83 6.82 13.64C7.28 13.44 7.69 13.16 8.01 12.81C8.33 12.46 8.58 12.04 8.75 11.56C8.92 11.09 9.02 10.58 9.02 10.04L9.02 4.47C9.18 4.47 9.32 4.45 9.46 4.45C9.60 4.45 9.72 4.44 9.79 4.44L9.91 4.44C10.09 4.42 10.19 4.34 10.19 4.19L10.19 3.92ZM27.05 3.92L26.42 3.92L25.20 3.92L25.20 4.19C25.20 4.34 25.30 4.42 25.48 4.44L25.62 4.44C25.69 4.44 25.80 4.45 25.94 4.45C26.08 4.45 26.25 4.47 26.42 4.47L26.42 12.22C26.42 12.35 26.42 12.49 26.43 12.63L20.02 4.05C19.98 3.99 19.95 3.95 19.91 3.93C19.87 3.92 19.82 3.91 19.75 3.91L19.40 3.91L18.21 3.91L18.21 4.19C18.21 4.34 18.31 4.42 18.49 4.44L18.63 4.44C18.70 4.44 18.80 4.45 18.94 4.45C19.08 4.45 19.24 4.47 19.40 4.47L19.40 13.26C19.24 13.26 19.08 13.27 18.94 13.27C18.80 13.27 18.70 13.29 18.63 13.29L18.49 13.29C18.31 13.30 18.21 13.38 18.21 13.54L18.21 13.82L19.40 13.82L20.02 13.82L21.24 13.82L21.24 13.54C21.24 13.38 21.14 13.30 20.96 13.29L20.82 13.29C20.75 13.29 20.62 13.27 20.48 13.27C20.34 13.27 20.19 13.26 20.02 13.26L20.02 5.49C20.02 5.36 20.02 5.22 20.01 5.08L26.45 13.68C26.52 13.78 26.59 13.82 26.70 13.82L27.05 13.82L27.05 4.47C27.22 4.47 27.36 4.45 27.50 4.45C27.64 4.45 27.75 4.44 27.82 4.44L27.94 4.44C28.13 4.42 28.22 4.34 28.22 4.19L28.22 3.92ZM42.63 11.97C42.43 11.97 42.35 12.08 42.34 12.31C42.34 12.32 42.34 12.38 42.32 12.43C42.31 12.49 42.31 12.59 42.29 12.71C42.28 12.84 42.27 13.01 42.25 13.20L38.16 13.20L38.16 4.47C38.33 4.47 38.47 4.45 38.61 4.45C38.75 4.45 38.86 4.44 38.93 4.44L39.06 4.44C39.24 4.42 39.34 4.34 39.34 4.19L39.34 3.92L38.16 3.92L37.45 3.92L36.26 3.92L36.26 4.19C36.26 4.34 36.36 4.42 36.54 4.44L36.68 4.44C36.75 4.44 36.85 4.45 36.99 4.45C37.13 4.45 37.28 4.47 37.45 4.47L37.45 13.26C37.28 13.26 37.13 13.27 36.99 13.27C36.85 13.27 36.75 13.29 36.68 13.29L36.54 13.29C36.36 13.30 36.26 13.38 36.26 13.54L36.26 13.82L37.45 13.82L42.73 13.82L42.85 13.82L42.98 13.82L42.98 13.55L42.98 12.99L42.98 11.97L42.70 11.97ZM54.22 4.44C54.40 4.42 54.49 4.34 54.49 4.19L54.49 3.91L53.31 3.91L52.60 3.91L51.41 3.91L51.41 4.19C51.41 4.34 51.51 4.42 51.69 4.44L51.83 4.44C51.90 4.44 52.00 4.45 52.14 4.45C52.28 4.45 52.43 4.47 52.60 4.47L52.60 13.26C52.43 13.26 52.28 13.27 52.14 13.27C52.00 13.27 51.90 13.29 51.83 13.29L51.69 13.29C51.51 13.30 51.41 13.38 51.41 13.54L51.41 13.82L52.60 13.82L53.31 13.82L54.49 13.82L54.49 13.54C54.49 13.38 54.40 13.30 54.22 13.29L54.08 13.29C54.01 13.29 53.91 13.27 53.77 13.27C53.63 13.27 53.48 13.26 53.31 13.26L53.31 4.47C53.48 4.47 53.63 4.45 53.77 4.45C53.91 4.45 54.01 4.44 54.08 4.44ZM74.70 4.44C74.89 4.42 74.98 4.34 74.98 4.19L74.98 3.92L73.81 3.92L73.30 3.92C73.23 3.92 73.19 3.92 73.15 3.93C73.11 3.95 73.08 3.99 73.04 4.05L69.15 10.92C69.10 10.99 69.08 11.06 69.05 11.13C69.02 11.20 68.99 11.28 68.96 11.35C68.91 11.20 68.85 11.06 68.78 10.93L64.78 4.05C64.74 3.99 64.71 3.95 64.67 3.93C64.62 3.92 64.58 3.92 64.51 3.92L64.02 3.92L62.83 3.92L62.83 4.19C62.83 4.34 62.93 4.42 63.11 4.44L63.25 4.44C63.32 4.44 63.42 4.45 63.56 4.45C63.70 4.45 63.85 4.47 64.02 4.47L64.02 13.26C63.85 13.26 63.70 13.27 63.56 13.27C63.42 13.27 63.32 13.29 63.25 13.29L63.11 13.29C62.93 13.30 62.83 13.38 62.83 13.54L62.83 13.82L64.02 13.82L64.64 13.82L65.86 13.82L65.86 13.54C65.86 13.38 65.76 13.30 65.58 13.29L65.44 13.29C65.37 13.29 65.25 13.27 65.11 13.27C64.97 13.27 64.81 13.26 64.64 13.26L64.64 5.38C64.64 5.25 64.64 5.12 64.62 4.98L68.63 11.91C68.70 12.04 68.80 12.10 68.91 12.10L69.02 12.10C69.15 12.10 69.23 12.04 69.30 11.91L73.19 4.98C73.18 5.12 73.18 5.25 73.18 5.38L73.18 13.26C73.01 13.26 72.84 13.27 72.70 13.27C72.56 13.27 72.45 13.29 72.38 13.29L72.24 13.29C72.06 13.30 71.96 13.38 71.96 13.54L71.96 13.82L73.18 13.82L73.81 13.82L74.98 13.82L74.98 13.54C74.98 13.38 74.89 13.30 74.70 13.29L74.58 13.29C74.51 13.29 74.40 13.27 74.26 13.27C74.12 13.27 73.98 13.26 73.81 13.26L73.81 4.47C73.98 4.47 74.12 4.45 74.26 4.45C74.40 4.45 74.51 4.44 74.58 4.44ZM86.14 4.44C86.32 4.42 86.41 4.34 86.41 4.19L86.41 3.91L85.23 3.91L84.52 3.91L83.33 3.91L83.33 4.19C83.33 4.34 83.43 4.42 83.61 4.44L83.75 4.44C83.82 4.44 83.92 4.45 84.06 4.45C84.20 4.45 84.35 4.47 84.52 4.47L84.52 13.26C84.35 13.26 84.20 13.27 84.06 13.27C83.92 13.27 83.82 13.29 83.75 13.29L83.61 13.29C83.43 13.30 83.33 13.38 83.33 13.54L83.33 13.82L84.52 13.82L85.23 13.82L86.41 13.82L86.41 13.54C86.41 13.38 86.32 13.30 86.14 13.29L86.00 13.29C85.93 13.29 85.83 13.27 85.69 13.27C85.55 13.27 85.40 13.26 85.23 13.26L85.23 4.47C85.40 4.47 85.55 4.45 85.69 4.45C85.83 4.45 85.93 4.44 86.00 4.44ZM102.27 3.92L102.07 3.92L94.78 3.92L94.57 3.92L94.47 3.92L94.47 5.96L94.82 5.96C95.02 5.96 95.10 5.85 95.12 5.63C95.12 5.53 95.14 5.17 95.17 4.52L98.07 4.52L98.07 13.26C97.90 13.26 97.76 13.27 97.62 13.27C97.48 13.27 97.37 13.29 97.30 13.29L97.17 13.29C96.99 13.30 96.89 13.38 96.89 13.54L96.89 13.82L98.07 13.82L98.78 13.82L99.97 13.82L99.97 13.54C99.97 13.38 99.88 13.30 99.69 13.29L99.55 13.29C99.48 13.29 99.39 13.27 99.25 13.27C99.11 13.27 98.95 13.26 98.78 13.26L98.78 4.52L101.67 4.52C101.71 5.24 101.72 5.60 101.72 5.63C101.74 5.85 101.84 5.96 102.03 5.96L102.37 5.96L102.37 3.92ZM111.66 3.92L110.47 3.92L110.47 4.19C110.47 4.34 110.57 4.42 110.75 4.44L110.89 4.44C110.96 4.44 111.06 4.45 111.20 4.45C111.34 4.45 111.50 4.47 111.66 4.47L111.66 13.26C111.50 13.26 111.34 13.27 111.20 13.27C111.06 13.27 110.96 13.29 110.89 13.29L110.75 13.29C110.57 13.30 110.49 13.38 110.49 13.54L110.49 13.82L111.66 13.82L117.60 13.82L117.60 13.22L117.60 11.76L117.25 11.76C117.05 11.76 116.97 11.89 116.96 12.11C116.96 12.14 116.94 12.19 116.94 12.29C116.94 12.39 116.94 12.53 116.93 12.74C116.91 12.95 116.90 13.09 116.90 13.22L112.38 13.22L112.38 9.09L116.33 9.09L116.33 8.51L112.38 8.51L112.38 4.51L116.90 4.51C116.93 5.12 116.96 5.50 116.96 5.63C116.97 5.85 117.05 5.96 117.25 5.96L117.60 5.96L117.60 4.51L117.60 3.92ZM135.18 6.80C134.96 6.19 134.64 5.68 134.22 5.25C133.80 4.82 133.31 4.48 132.73 4.26C132.16 4.03 131.50 3.92 130.80 3.92L127.37 3.92L126.18 3.92L126.18 4.19C126.18 4.34 126.28 4.42 126.46 4.44L126.60 4.44C126.67 4.44 126.77 4.45 126.91 4.45C127.05 4.45 127.20 4.47 127.37 4.47L127.37 13.26C127.20 13.26 127.05 13.27 126.91 13.27C126.77 13.27 126.67 13.29 126.60 13.29L126.46 13.29C126.28 13.30 126.18 13.38 126.18 13.54L126.18 13.82L127.37 13.82L130.80 13.82C131.50 13.82 132.16 13.71 132.73 13.48C133.31 13.26 133.80 12.92 134.22 12.49C134.64 12.05 134.96 11.54 135.18 10.92C135.41 10.30 135.53 9.63 135.53 8.86C135.53 8.11 135.41 7.42 135.18 6.80ZM134.50 10.72C134.30 11.27 134.05 11.72 133.70 12.10C133.35 12.47 132.93 12.75 132.44 12.95C131.95 13.15 131.40 13.24 130.80 13.24L128.09 13.24L128.09 4.49L130.80 4.49C131.40 4.49 131.95 4.59 132.44 4.79C132.93 4.98 133.35 5.26 133.70 5.64C134.05 6.02 134.30 6.47 134.50 7.01C134.69 7.56 134.79 8.18 134.79 8.86C134.79 9.56 134.69 10.18 134.50 10.72ZM159.92 9.91C159.78 9.65 159.59 9.39 159.35 9.21C159.11 9.03 158.86 8.88 158.56 8.75C158.27 8.62 157.95 8.51 157.64 8.41C157.33 8.32 157.02 8.20 156.73 8.11C156.44 7.99 156.17 7.87 155.93 7.71C155.69 7.56 155.51 7.38 155.37 7.15C155.23 6.93 155.15 6.65 155.15 6.31C155.15 6.06 155.20 5.82 155.30 5.59C155.40 5.35 155.54 5.15 155.72 4.97C155.90 4.79 156.13 4.65 156.41 4.55C156.69 4.45 157.00 4.40 157.36 4.40C158.03 4.40 158.65 4.51 159.21 4.75C159.25 5.54 159.28 5.99 159.28 6.06C159.29 6.29 159.38 6.41 159.57 6.41L159.91 6.41L159.91 4.38C159.03 4.00 158.19 3.81 157.36 3.81C156.90 3.81 156.49 3.88 156.13 4.02C155.76 4.16 155.47 4.34 155.23 4.58C154.99 4.82 154.80 5.08 154.67 5.39C154.55 5.70 154.49 6.02 154.49 6.36C154.49 6.78 154.56 7.14 154.70 7.42C154.84 7.70 155.04 7.92 155.27 8.12C155.51 8.32 155.76 8.46 156.06 8.58C156.35 8.71 156.67 8.82 156.98 8.92C157.29 9.02 157.58 9.11 157.89 9.21C158.19 9.31 158.45 9.45 158.69 9.60C158.93 9.76 159.11 9.94 159.25 10.16C159.39 10.39 159.46 10.68 159.46 11.03C159.46 11.35 159.40 11.66 159.29 11.94C159.18 12.22 159.03 12.46 158.82 12.67C158.61 12.88 158.34 13.05 158.03 13.16C157.72 13.29 157.37 13.33 156.98 13.33C156.20 13.33 155.54 13.20 155.01 12.95C154.99 12.75 154.99 12.54 154.98 12.32C154.97 12.10 154.97 11.91 154.95 11.76C154.94 11.61 154.94 11.52 154.94 11.51C154.92 11.28 154.83 11.17 154.63 11.17L154.29 11.17L154.29 13.02L154.29 13.20L154.29 13.38C155.15 13.75 156.03 13.93 156.95 13.93C157.46 13.93 157.91 13.85 158.30 13.69C158.69 13.54 159.03 13.31 159.29 13.05C159.56 12.78 159.78 12.46 159.92 12.10C160.06 11.73 160.13 11.34 160.13 10.92C160.13 10.51 160.06 10.18 159.92 9.91ZM169.58 3.92L168.39 3.92L168.39 4.19C168.39 4.34 168.49 4.42 168.67 4.44L168.81 4.44C168.88 4.44 168.98 4.45 169.12 4.45C169.26 4.45 169.41 4.47 169.58 4.47L169.58 13.26C169.41 13.26 169.26 13.27 169.12 13.27C168.98 13.27 168.88 13.29 168.81 13.29L168.67 13.29C168.49 13.30 168.41 13.38 168.41 13.54L168.41 13.82L169.58 13.82L175.52 13.82L175.52 13.22L175.52 11.76L175.17 11.76C174.97 11.76 174.89 11.89 174.87 12.11C174.87 12.14 174.86 12.19 174.86 12.29C174.86 12.39 174.86 12.53 174.85 12.74C174.83 12.95 174.82 13.09 174.82 13.22L170.30 13.22L170.30 9.09L174.24 9.09L174.24 8.51L170.30 8.51L170.30 4.51L174.82 4.51C174.85 5.12 174.87 5.50 174.87 5.63C174.89 5.85 174.97 5.96 175.17 5.96L175.52 5.96L175.52 4.51L175.52 3.92ZM192.09 13.29L192.00 13.29L191.81 13.29C191.73 13.29 191.65 13.27 191.56 13.27L188.59 9.53C188.51 9.42 188.40 9.32 188.29 9.25C188.72 9.21 189.11 9.11 189.46 8.96C189.81 8.81 190.09 8.61 190.34 8.37C190.58 8.13 190.78 7.85 190.90 7.55C191.03 7.24 191.10 6.89 191.10 6.51C191.10 5.66 190.82 5.03 190.26 4.58C189.70 4.14 188.85 3.92 187.70 3.92L185.29 3.92L184.11 3.92L184.11 4.19C184.11 4.34 184.20 4.42 184.38 4.44L184.52 4.44C184.59 4.44 184.69 4.45 184.83 4.45C184.97 4.45 185.12 4.47 185.29 4.47L185.29 13.26C185.12 13.26 184.97 13.27 184.83 13.27C184.69 13.27 184.59 13.29 184.52 13.29L184.38 13.29C184.20 13.30 184.10 13.38 184.10 13.54L184.10 13.82L185.29 13.82L186.00 13.82L187.18 13.82L187.18 13.54C187.18 13.38 187.08 13.30 186.90 13.29L186.76 13.29C186.69 13.29 186.59 13.27 186.45 13.27C186.31 13.27 186.17 13.26 186.00 13.26L186.00 9.34L187.18 9.34C187.38 9.34 187.52 9.35 187.60 9.39C187.68 9.44 187.77 9.52 187.85 9.62L191.03 13.64C191.09 13.71 191.13 13.75 191.18 13.78C191.24 13.80 191.31 13.82 191.38 13.82L191.45 13.82L192.00 13.82L192.36 13.82L192.36 13.54C192.36 13.38 192.28 13.30 192.09 13.29ZM187.60 8.81L186.00 8.81L186.00 4.48L187.70 4.48C188.58 4.48 189.25 4.66 189.71 5.00C190.18 5.33 190.40 5.87 190.40 6.57C190.40 6.92 190.34 7.21 190.22 7.49C190.09 7.77 189.90 7.99 189.66 8.19C189.42 8.39 189.13 8.55 188.78 8.65C188.43 8.75 188.03 8.81 187.60 8.81ZM208.91 3.92L208.35 3.92L208.32 3.92L206.85 3.92L206.85 4.19C206.85 4.34 206.93 4.42 207.12 4.44L207.24 4.44C207.30 4.44 207.38 4.45 207.51 4.45C207.63 4.45 207.77 4.47 207.93 4.47L204.72 12.32C204.64 12.53 204.57 12.75 204.51 13.01C204.46 12.77 204.39 12.53 204.30 12.32L201.07 4.47C201.22 4.47 201.38 4.45 201.50 4.45C201.63 4.45 201.71 4.44 201.77 4.44L201.88 4.44C202.06 4.42 202.16 4.34 202.16 4.19L202.16 3.92L200.66 3.92L200.10 3.92L199.50 3.92L199.50 4.19C199.50 4.34 199.60 4.42 199.78 4.44L199.88 4.44C199.92 4.44 199.99 4.45 200.06 4.45C200.13 4.45 200.23 4.47 200.33 4.47L204.19 13.82L204.82 13.82L208.68 4.47C208.78 4.47 208.88 4.45 208.95 4.45C209.02 4.45 209.09 4.44 209.13 4.44L209.22 4.44C209.40 4.42 209.50 4.34 209.50 4.19L209.50 3.92ZM220.36 4.44C220.54 4.42 220.63 4.34 220.63 4.19L220.63 3.91L219.45 3.91L218.74 3.91L217.55 3.91L217.55 4.19C217.55 4.34 217.64 4.42 217.83 4.44L217.97 4.44C218.04 4.44 218.13 4.45 218.27 4.45C218.41 4.45 218.57 4.47 218.74 4.47L218.74 13.26C218.57 13.26 218.41 13.27 218.27 13.27C218.13 13.27 218.04 13.29 217.97 13.29L217.83 13.29C217.64 13.30 217.55 13.38 217.55 13.54L217.55 13.82L218.74 13.82L219.45 13.82L220.63 13.82L220.63 13.54C220.63 13.38 220.54 13.30 220.36 13.29L220.22 13.29C220.15 13.29 220.05 13.27 219.91 13.27C219.77 13.27 219.62 13.26 219.45 13.26L219.45 4.47C219.62 4.47 219.77 4.45 219.91 4.45C220.05 4.45 220.15 4.44 220.22 4.44ZM236.70 12.21C236.67 12.18 236.63 12.15 236.59 12.15C236.56 12.15 236.54 12.15 236.52 12.17C236.50 12.18 236.47 12.21 236.45 12.22C236.25 12.40 236.04 12.56 235.84 12.70C235.65 12.84 235.44 12.94 235.20 13.03C234.96 13.13 234.71 13.20 234.43 13.24C234.15 13.29 233.84 13.31 233.49 13.31C232.93 13.31 232.39 13.22 231.91 13.01C231.42 12.81 231.01 12.52 230.66 12.14C230.31 11.76 230.02 11.28 229.82 10.74C229.63 10.19 229.53 9.56 229.53 8.86C229.53 8.18 229.63 7.56 229.82 7.01C230.03 6.47 230.31 6.01 230.68 5.61C231.04 5.24 231.48 4.94 231.98 4.73C232.48 4.52 233.03 4.42 233.63 4.42C234.53 4.42 235.35 4.56 236.08 4.89C236.12 5.78 236.17 6.30 236.17 6.41C236.18 6.64 236.26 6.75 236.46 6.75L236.80 6.75L236.80 4.51C235.62 4.03 234.56 3.81 233.63 3.81C232.92 3.81 232.27 3.92 231.67 4.17C231.08 4.42 230.55 4.76 230.13 5.21C229.70 5.66 229.38 6.19 229.14 6.80C228.90 7.42 228.79 8.11 228.79 8.86C228.79 9.63 228.91 10.32 229.14 10.95C229.36 11.58 229.68 12.10 230.09 12.54C230.50 12.99 230.99 13.33 231.56 13.57C232.13 13.80 232.75 13.93 233.44 13.93C233.84 13.93 234.22 13.90 234.57 13.83C234.91 13.76 235.23 13.66 235.52 13.54C235.80 13.41 236.07 13.26 236.31 13.09C236.54 12.91 236.77 12.73 236.98 12.50ZM246.18 3.92L244.99 3.92L244.99 4.19C244.99 4.34 245.08 4.42 245.27 4.44L245.41 4.44C245.48 4.44 245.57 4.45 245.71 4.45C245.85 4.45 246.01 4.47 246.18 4.47L246.18 13.26C246.01 13.26 245.85 13.27 245.71 13.27C245.57 13.27 245.48 13.29 245.41 13.29L245.27 13.29C245.08 13.30 245 13.38 245 13.54L245 13.82L246.18 13.82L252.11 13.82L252.11 13.22L252.11 11.76L251.76 11.76C251.57 11.76 251.48 11.89 251.47 12.11C251.47 12.14 251.45 12.19 251.45 12.29C251.45 12.39 251.45 12.53 251.44 12.74C251.43 12.95 251.41 13.09 251.41 13.22L246.89 13.22L246.89 9.09L250.84 9.09L250.84 8.51L246.89 8.51L246.89 4.51L251.41 4.51C251.44 5.12 251.47 5.50 251.47 5.63C251.48 5.85 251.57 5.96 251.76 5.96L252.11 5.96L252.11 4.51L252.11 3.92ZM266.42 9.91C266.28 9.65 266.08 9.39 265.85 9.21C265.61 9.03 265.36 8.88 265.06 8.75C264.77 8.62 264.45 8.51 264.14 8.41C263.83 8.32 263.52 8.20 263.23 8.11C262.93 7.99 262.67 7.87 262.43 7.71C262.19 7.56 262.01 7.38 261.87 7.15C261.73 6.93 261.65 6.65 261.65 6.31C261.65 6.06 261.70 5.82 261.80 5.59C261.90 5.35 262.04 5.15 262.22 4.97C262.40 4.79 262.63 4.65 262.91 4.55C263.19 4.45 263.49 4.40 263.86 4.40C264.53 4.40 265.15 4.51 265.71 4.75C265.75 5.54 265.78 5.99 265.78 6.06C265.79 6.29 265.87 6.41 266.07 6.41L266.41 6.41L266.41 4.38C265.52 4.00 264.68 3.81 263.86 3.81C263.40 3.81 262.99 3.88 262.63 4.02C262.26 4.16 261.97 4.34 261.73 4.58C261.49 4.82 261.30 5.08 261.17 5.39C261.04 5.70 260.99 6.02 260.99 6.36C260.99 6.78 261.06 7.14 261.20 7.42C261.34 7.70 261.53 7.92 261.77 8.12C262.01 8.32 262.26 8.46 262.56 8.58C262.85 8.71 263.17 8.82 263.48 8.92C263.79 9.02 264.08 9.11 264.39 9.21C264.68 9.31 264.95 9.45 265.19 9.60C265.43 9.76 265.61 9.94 265.75 10.16C265.89 10.39 265.96 10.68 265.96 11.03C265.96 11.35 265.90 11.66 265.79 11.94C265.68 12.22 265.52 12.46 265.31 12.67C265.10 12.88 264.84 13.05 264.53 13.16C264.22 13.29 263.87 13.33 263.48 13.33C262.70 13.33 262.04 13.20 261.51 12.95C261.49 12.75 261.49 12.54 261.48 12.32C261.46 12.10 261.46 11.91 261.45 11.76C261.44 11.61 261.44 11.52 261.44 11.51C261.42 11.28 261.32 11.17 261.13 11.17L260.79 11.17L260.79 13.02L260.79 13.20L260.79 13.38C261.65 13.75 262.53 13.93 263.45 13.93C263.96 13.93 264.40 13.85 264.80 13.69C265.19 13.54 265.52 13.31 265.79 13.05C266.06 12.78 266.28 12.46 266.42 12.10C266.56 11.73 266.63 11.34 266.63 10.92C266.63 10.51 266.56 10.18 266.42 9.91ZM292.39 3.92L292.04 3.92L286.45 3.92L285.26 3.92L285.26 4.19C285.26 4.34 285.36 4.42 285.54 4.44L285.68 4.44C285.75 4.44 285.85 4.45 285.99 4.45C286.13 4.45 286.29 4.47 286.45 4.47L286.45 13.26C286.29 13.26 286.13 13.27 285.99 13.27C285.85 13.27 285.75 13.29 285.68 13.29L285.54 13.29C285.36 13.30 285.26 13.38 285.26 13.54L285.26 13.82L286.45 13.82L287.17 13.82L288.34 13.82L288.34 13.54C288.34 13.38 288.26 13.30 288.08 13.29L287.94 13.29C287.87 13.29 287.77 13.27 287.63 13.27C287.49 13.27 287.34 13.26 287.17 13.26L287.17 9.27L290.86 9.27L290.86 8.67L287.17 8.67L287.17 4.51L291.77 4.51C291.80 5.18 291.83 5.56 291.83 5.63C291.84 5.85 291.94 5.96 292.14 5.96L292.47 5.96L292.47 3.92ZM309.86 8.86C309.86 8.11 309.74 7.41 309.51 6.79C309.29 6.17 308.97 5.64 308.55 5.19C308.13 4.75 307.64 4.40 307.06 4.16C306.49 3.92 305.83 3.79 305.13 3.79C304.43 3.79 303.80 3.92 303.23 4.16C302.65 4.40 302.15 4.75 301.73 5.19C301.31 5.64 300.99 6.17 300.76 6.79C300.54 7.41 300.41 8.11 300.41 8.86C300.41 9.63 300.54 10.33 300.76 10.95C300.99 11.56 301.31 12.10 301.73 12.54C302.15 12.99 302.65 13.33 303.23 13.57C303.80 13.80 304.43 13.93 305.13 13.93C305.83 13.93 306.49 13.80 307.06 13.57C307.64 13.33 308.13 12.99 308.55 12.54C308.97 12.10 309.29 11.56 309.51 10.95C309.74 10.33 309.86 9.63 309.86 8.86ZM309.11 8.86C309.11 9.56 309.02 10.18 308.83 10.72C308.63 11.27 308.36 11.75 308.01 12.12C307.66 12.50 307.24 12.81 306.75 13.01C306.26 13.20 305.73 13.30 305.13 13.30C304.54 13.30 304.01 13.20 303.52 13.01C303.03 12.81 302.61 12.50 302.26 12.12C301.91 11.75 301.63 11.27 301.43 10.72C301.24 10.18 301.15 9.56 301.15 8.86C301.15 8.18 301.24 7.55 301.43 7.00C301.63 6.45 301.91 5.98 302.26 5.60C302.61 5.22 303.03 4.91 303.52 4.72C304.01 4.52 304.54 4.41 305.13 4.41C305.73 4.41 306.26 4.52 306.75 4.72C307.24 4.91 307.66 5.22 308.01 5.60C308.36 5.98 308.63 6.45 308.83 7.00C309.02 7.55 309.11 8.18 309.11 8.86ZM326.13 13.29L326.03 13.29L325.85 13.29C325.77 13.29 325.68 13.27 325.60 13.27L322.63 9.53C322.55 9.42 322.43 9.32 322.32 9.25C322.76 9.21 323.15 9.11 323.50 8.96C323.85 8.81 324.13 8.61 324.38 8.37C324.62 8.13 324.81 7.85 324.94 7.55C325.07 7.24 325.14 6.89 325.14 6.51C325.14 5.66 324.86 5.03 324.30 4.58C323.74 4.14 322.88 3.92 321.73 3.92L319.33 3.92L318.15 3.92L318.15 4.19C318.15 4.34 318.23 4.42 318.42 4.44L318.56 4.44C318.63 4.44 318.72 4.45 318.86 4.45C319.00 4.45 319.16 4.47 319.33 4.47L319.33 13.26C319.16 13.26 319.00 13.27 318.86 13.27C318.72 13.27 318.63 13.29 318.56 13.29L318.42 13.29C318.23 13.30 318.14 13.38 318.14 13.54L318.14 13.82L319.33 13.82L320.04 13.82L321.22 13.82L321.22 13.54C321.22 13.38 321.12 13.30 320.94 13.29L320.80 13.29C320.73 13.29 320.63 13.27 320.49 13.27C320.35 13.27 320.21 13.26 320.04 13.26L320.04 9.34L321.22 9.34C321.41 9.34 321.55 9.35 321.64 9.39C321.72 9.44 321.80 9.52 321.89 9.62L325.07 13.64C325.12 13.71 325.16 13.75 325.22 13.78C325.28 13.80 325.35 13.82 325.42 13.82L325.49 13.82L326.03 13.82L326.40 13.82L326.40 13.54C326.40 13.38 326.31 13.30 326.13 13.29ZM321.64 8.81L320.04 8.81L320.04 4.48L321.73 4.48C322.62 4.48 323.29 4.66 323.75 5.00C324.21 5.33 324.44 5.87 324.44 6.57C324.44 6.92 324.38 7.21 324.25 7.49C324.13 7.77 323.93 7.99 323.69 8.19C323.46 8.39 323.16 8.55 322.81 8.65C322.46 8.75 322.07 8.81 321.64 8.81ZM353.11 3.92L353.04 3.92L352.48 3.92L352.37 3.92L350.97 3.92L350.97 4.19C350.97 4.34 351.06 4.42 351.25 4.44L351.36 4.44C351.41 4.44 351.48 4.45 351.60 4.45C351.71 4.45 351.83 4.47 351.97 4.47L349.38 8.64C349.31 8.75 349.26 8.85 349.22 8.95C349.17 9.04 349.13 9.16 349.09 9.25C349.05 9.16 349.01 9.04 348.96 8.95C348.92 8.85 348.87 8.75 348.80 8.64L346.19 4.47C346.33 4.47 346.46 4.45 346.57 4.45C346.68 4.45 346.77 4.44 346.82 4.44L346.92 4.44C347.10 4.42 347.20 4.34 347.20 4.19L347.20 3.92L345.80 3.92L345.69 3.92L345.13 3.92L345.06 3.92L344.61 3.92L344.61 4.19C344.61 4.34 344.71 4.42 344.89 4.44C345.13 4.45 345.31 4.47 345.41 4.47L348.73 9.73L348.73 13.26C348.56 13.26 348.40 13.27 348.26 13.27C348.12 13.27 348.03 13.29 347.96 13.29L347.83 13.29C347.65 13.30 347.55 13.38 347.55 13.54L347.55 13.82L348.73 13.82L349.44 13.82L350.62 13.82L350.62 13.54C350.62 13.38 350.53 13.30 350.35 13.29L350.21 13.29C350.14 13.29 350.04 13.27 349.90 13.27C349.76 13.27 349.61 13.26 349.44 13.26L349.44 9.73L352.76 4.47C352.87 4.47 353.04 4.45 353.28 4.44C353.46 4.42 353.56 4.34 353.56 4.19L353.56 3.92ZM370.30 8.86C370.30 8.11 370.17 7.41 369.95 6.79C369.73 6.17 369.40 5.64 368.98 5.19C368.56 4.75 368.07 4.40 367.50 4.16C366.93 3.92 366.27 3.79 365.57 3.79C364.87 3.79 364.24 3.92 363.66 4.16C363.09 4.40 362.59 4.75 362.17 5.19C361.75 5.64 361.42 6.17 361.20 6.79C360.98 7.41 360.85 8.11 360.85 8.86C360.85 9.63 360.98 10.33 361.20 10.95C361.42 11.56 361.75 12.10 362.17 12.54C362.59 12.99 363.09 13.33 363.66 13.57C364.24 13.80 364.87 13.93 365.57 13.93C366.27 13.93 366.93 13.80 367.50 13.57C368.07 13.33 368.56 12.99 368.98 12.54C369.40 12.10 369.73 11.56 369.95 10.95C370.17 10.33 370.30 9.63 370.30 8.86ZM369.54 8.86C369.54 9.56 369.46 10.18 369.26 10.72C369.07 11.27 368.80 11.75 368.45 12.12C368.10 12.50 367.68 12.81 367.19 13.01C366.70 13.20 366.17 13.30 365.57 13.30C364.98 13.30 364.45 13.20 363.96 13.01C363.47 12.81 363.05 12.50 362.70 12.12C362.35 11.75 362.07 11.27 361.87 10.72C361.68 10.18 361.59 9.56 361.59 8.86C361.59 8.18 361.68 7.55 361.87 7.00C362.07 6.45 362.35 5.98 362.70 5.60C363.05 5.22 363.47 4.91 363.96 4.72C364.45 4.52 364.98 4.41 365.57 4.41C366.17 4.41 366.70 4.52 367.19 4.72C367.68 4.91 368.10 5.22 368.45 5.60C368.80 5.98 369.07 6.45 369.26 7.00C369.46 7.55 369.54 8.18 369.54 8.86ZM386.54 3.92L385.83 3.92L384.47 3.92L384.47 4.19C384.47 4.34 384.57 4.42 384.75 4.44L384.92 4.44C385.01 4.44 385.15 4.45 385.32 4.45C385.49 4.45 385.66 4.47 385.83 4.47L385.83 10.04C385.83 10.50 385.76 10.92 385.62 11.33C385.48 11.73 385.28 12.08 385.01 12.38C384.75 12.67 384.44 12.89 384.06 13.06C383.68 13.23 383.26 13.31 382.79 13.31C382.31 13.31 381.88 13.23 381.50 13.06C381.12 12.89 380.80 12.66 380.55 12.36C380.28 12.07 380.10 11.72 379.96 11.33C379.82 10.93 379.75 10.50 379.75 10.04L379.75 4.47C379.92 4.47 380.09 4.45 380.25 4.45C380.42 4.45 380.56 4.44 380.66 4.44L380.83 4.44C381.01 4.42 381.11 4.34 381.11 4.19L381.11 3.92L379.75 3.92L379.04 3.92L377.86 3.92L377.86 4.19C377.86 4.34 377.94 4.42 378.13 4.44L378.27 4.44C378.34 4.44 378.43 4.45 378.57 4.45C378.71 4.45 378.87 4.47 379.04 4.47L379.04 10.04C379.04 10.58 379.12 11.09 379.29 11.56C379.46 12.04 379.71 12.46 380.03 12.81C380.35 13.16 380.76 13.44 381.22 13.64C381.68 13.83 382.21 13.93 382.79 13.93C383.36 13.93 383.88 13.83 384.34 13.64C384.80 13.44 385.21 13.16 385.53 12.81C385.85 12.46 386.11 12.04 386.27 11.56C386.44 11.09 386.54 10.58 386.54 10.04L386.54 4.47C386.71 4.47 386.85 4.45 386.99 4.45C387.13 4.45 387.24 4.44 387.31 4.44L387.44 4.44C387.62 4.42 387.72 4.34 387.72 4.19L387.72 3.92Z"></path></g></svg>